<?xml version="1.0" encoding="UTF-8"?>
<svg id="Layer_2" data-name="Layer 2" xmlns="http://www.w3.org/2000/svg" viewBox="0 0 73.95 93.96">
  <defs>
    <style>
      .cls-1 {
        fill: #b8922e;
      }
    </style>
  </defs>
  <g id="Layer_1-2" data-name="Layer 1">
    <path class="cls-1" d="M71.97,35.4c-.08-.08-.14-.09-.1-.23,3.4-1.1,2.34-6.09-.96-6.52.31-.36.84-.44,1.24-.72,2.12-1.54,1.54-5.06-.47-6.43-.35-.1-2.14,1.12-2.59,1.35-3.07,1.62-6.32,2.89-9.47,4.34-6.2,2.87-12.36,6-17.73,10.28l-.14-.05.48-.48c-.31-.03-.82.45-1.06.67-2.31,2.1-4.54,4.37-6.52,6.73-.53.63-1.11,2.14-1.58,2.91-.07.12.02.24-.24.19.55-1.11,1.01-2.27,1.55-3.39.17-.36.49-.78.61-1.11.03-.09.13-.31-.05-.29l-.72,1.34c-.03-.34.13-.69.25-.99.39-.91,1.1-1.85,1.57-2.75,2.45-4.61,4.82-8.77,7.64-13.17,4.08-6.36,8.53-12.44,13.07-18.48.15.09-.03.22-.09.3-2.4,3.67-5.21,7.19-7.71,10.8-2.34,3.37-4.46,6.86-6.65,10.32-1.82,2.88-3.82,5.55-5.23,8.67-.07.16-.13.32-.12.5l1.49-2.77c3.02-4.03,5.83-8.19,8.96-12.14,4-5.05,8.33-9.83,12.51-14.72l.05.14c-1.62,1.87-3.09,3.87-4.7,5.75-1.85,2.17-3.84,4.23-5.65,6.43-3.55,4.3-6.75,8.88-10.02,13.38-1.17,1.61-1.94,3.25-2.92,4.95-.42.73-1.02,1.46-1.26,2.24.78-.85,1.36-1.89,1.97-2.87.17-.28.12.13.19.09,6.02-9,14.73-15.55,22.92-22.44,1.04-.87,2.05-1.79,3.07-2.68l.14.05c-1.72,1.71-3.67,3.17-5.51,4.75-5.93,5.07-12.31,10.26-17.31,16.26-.91,1.1-2.37,2.84-3.07,4.03-.09.16-.2.33-.19.52,2.75-3.51,5.83-6.73,9.26-9.59,1.88-1.57,3.94-3.18,5.9-4.65,4.07-3.03,8.4-5.71,12.49-8.71.38-.28,1.23-1.08,1.55-1.23.04-.02.16-.02.14.05-4.73,4.06-10.2,7.16-15.14,10.94-4.15,3.18-8.63,6.84-11.99,10.83-.58.69-1.03,1.53-1.73,2.15.18.04.23-.1.34-.19.59-.5.94-1.18,1.44-1.73,2.65-2.96,5.98-5.39,9.23-7.65,2.62-1.83,5.18-3.81,7.93-5.4,2.76-1.6,5.76-3.16,8.6-4.64,1.05-.55,2.15-1.01,3.16-1.64l.1.1c-3.66,2.15-7.51,3.96-11.19,6.07-1.81,1.04-3.01,2.03-4.64,3.22-4.15,3.01-8.06,5.19-11.87,8.84-.48.46-.92,1.09-1.45,1.53-.02.07.1.07.14.05.44-.2,1.76-1.63,2.25-2.06.89-.77,1.96-1.69,2.89-2.39.9-.68,1.97-1.26,2.92-1.88.28-.02.08.11-.02.18-.77.51-1.7,1.06-2.42,1.6-1.16.87-2.22,1.89-3.36,2.77l.24.14c8.64-6.99,19.28-10.63,29.11-15.59,1.09-1.57-.63-3.59-2.01-4.31-.62-.32-1.35-.25-1.35-1.05,0-.66.2-.77-.1-1.52-.73-1.82-3.63-3.83-5.6-3.81-.41,0-1.53.36-1.77.25-.74-.33-.15-1.18-.15-1.63,0-1.56-2.3-3.6-3.78-3.84-.51-.08-.86.02-1.35,0-.31-.19-.23-.56-.34-.82-.32-.77-1.04-1.69-1.93-1.81-.38-.05-.83.06-1.2-.05-.25-.08-.87-.79-1.27-1.03-3.53-2.08-6.09,1.43-7.16,4.38-1.74,4.8-1.83,10.37-4.29,14.89-1.6,6.9-2.74,13.93-4.67,20.74-.12.42-.3.83-.44,1.24-.18.02-.07-.19-.05-.29.09-.38.53-1.19.15-1.43l-1.06,3.84c-.17.02-.08-.2-.05-.29.31-1.08.63-2.15.87-3.25,2.29-10.35,3.32-21.11,3.79-31.7,0-.19.11-.38.1-.57l.09-5.61c.17-.02.09.22.09.33.02.42-.02.84,0,1.25.01.23.1.44.1.66.04,1.7-.12,3.4-.19,5.09-.45,9.64-1.48,19.31-3.41,28.72-.1.48-.19.96-.24,1.44l.2-.33c1.21-4.49,2.1-9.04,3.11-13.58.4-1.79,1.38-4.65,1.53-6.31.03-.34-.15-.85-.14-1.31.09-4.71,2.79-13.89-.29-17.84-1.2-1.54-3.35-2.17-5.17-1.44-.38.15-1.15.76-1.41.79-.26.03-.85-.24-1.23-.26-.94-.06-1.92.31-2.59.96-.35.34-.68,1.12-1.19,1.21-.27.04-1.11-.29-1.5-.33-1.97-.2-4.51.86-5.58,2.55-.54.85-.49,1.47-.4,2.43-.71-.19-1.35-.48-2.08-.12-.21.1-.35.39-.56.41-.22.02-.48-.2-.71-.25-1.91-.42-5.27.55-6.03,2.51-.12.32-.13.92-.36,1.09-.43.08-.88-.04-1.33,0-2.14.2-4.32,2.76-3.16,4.89,8.82,4.72,17.9,9.7,23.68,18.14.69,1.01,1.42,2.12,1.88,3.25.18.02.08-.19.05-.29-.15-.63-.57-1.71-.82-2.35-.94-2.41-2.84-5.64-4.51-7.62,0,.06.03.2-.05.19-.61-.52-1.04-1.2-1.58-1.77-2.81-2.99-5.8-5.85-8.92-8.54-1.81-1.56-3.78-2.96-5.47-4.65.21.01.4.22.57.34,5.55,4.19,10.97,9.11,15.45,14.42-.06-.53-2-3.05-2.46-3.63-3.6-4.58-7.98-8.53-12.03-12.72l.29.1c4.79,4.57,9.72,9.21,13.56,14.64,2.56,3.62,5.05,7.4,6.32,11.71.19,1.72.68,3.4.82,5.12.01.12.1.51-.08.51-.66-4.76-4.11-8.73-7.93-11.39-5.9-4.12-12.94-5.86-19.69-8.08l.29-.05c4.63,1.49,9.42,2.6,13.84,4.67,3.87,1.81,8.68,4.91,11.09,8.47.64.94,1.22,1.98,1.68,3.02.22,0-.54-1.83-.61-1.98-.24-.53-.89-1.76-1.26-2.17-2.23-2.47-4.39-4.95-7.06-7.06-2.41-1.9-5.06-3.44-7.75-4.91-3.32-1.82-6.73-3.52-10.23-4.97l.29-.05c3.87,1.57,7.65,3.35,11.28,5.4,3.3,1.87,6.78,4.24,9.53,6.87,1.23,1.18,2.17,2.62,3.31,3.89.15-.09-.03-.22-.09-.3-5.38-8.25-15.11-12.97-23.24-18.01-.36.29-.57.06-.94.07-.81.04-1.77.33-2.18,1.09-.17.32-.14.73-.26.89-.13.17-.81.26-1.1.44-1.48.91-1.27,2.66-.21,3.82,2.02,2.21,8.04,3.39,10.96,4.29,5.95,1.82,12.39,4.54,16.32,9.57,6.69,8.58.77,17.17-2.99,25.39-3.3,7.23-6.62,15.93-7.27,23.9-.15,1.84-.31,6.62,1.29,7.81.82.61,1.96.2,2.43-.64.58-1.04-.53-1.64-.93-2.49-2.44-5.13.84-16.35,2.79-21.54,2.25-5.99,5.56-12.84,8.78-18.36,5.73-9.81,15.87-12.41,26.71-11.05,3.36.42,9.55,2.3,12.58,1.05,1.39-.58,2.04-1.69,1.86-3.21-.13-1.06-.77-1.38-1.42-2.03ZM38.36,38.05l-.73,1.24.44-1.14c.95-1,1.6-2.27,2.63-3.17l-2.34,3.08ZM62.56,11.09l-.19.34c-1.58,1.55-3.17,3.1-4.75,4.65-3.47,3.43-6.99,6.9-10.27,10.55-1.73,1.93-3.31,4-5.13,5.85-.01-.18.15-.34.25-.47.24-.32.55-.7.81-1.01,4.47-5.4,9.31-10.42,14.34-15.3,1.62-1.57,3.22-3.14,4.94-4.61ZM35.64,37.92c.44-2.13,1.34-4.39,1.94-6.5,2.04-7.12,3.97-14.27,5.93-21.41l1.79-5.92c-.47,2.16-1,4.31-1.56,6.45-1.76,6.66-3.65,13.33-5.56,19.95-.77,2.66-1.64,5.3-2.47,7.94-.18,0-.09-.4-.07-.5ZM37.34,35.02c1.69-4.74,2.76-9.77,4.46-14.43.01-.04.28-.84.33-.44-.41,1.2-.67,2.45-1.03,3.67-.33,1.09-.81,2.14-1.06,3.26-.02.1-.1.34.07.31,1.01-2.85,1.93-5.73,3-8.56,1.68-4.44,3.54-9.12,5.43-13.47.27-.63.61-1.47.92-2.05.06-.11.11-.26.24-.28l-6.5,16.38-4.43,12.49,6.36-13.73,6.83-13.6.1.1c-4.9,9.87-9.74,19.77-14.06,29.91l.24-.29c5.04-9.67,10.06-19.38,16.17-28.42l.18-.02c-6.14,9.5-11.24,19.61-16.74,29.49l-2.92,6.52c.47-2.38,1.59-4.58,2.4-6.85ZM12.65,17.13c4.19,3.02,8.53,6.46,12,10.3,1.56,1.72,4.4,5.2,5.28,7.33.07.16.19.44.07.6-2.2-4.16-5.22-7.64-8.63-10.84-2.57-2.41-5.53-4.92-8.42-6.92-1.56-1.09-3.24-2-4.77-3.14l4.46,2.68ZM4.06,21.16c8.15,2.49,16.5,5.78,22.77,11.71l.83,1.14c-4.38-4.59-10.22-7.5-16.02-9.92-1.19-.5-2.41-1-3.62-1.47-1.21-.47-2.49-.82-3.69-1.3-.1-.04-.29-.03-.26-.17ZM32.32,4.45c1.66,8.16,2.17,16.5,2.34,24.81l-.2,5.23c.06.08.13.08.16-.09.07-.36.17-.86.21-1.22.95-7.82,1.09-16,.97-23.87l-.58-6.85.27,1.21c1.43,12.23.45,24.7-1.55,36.79l-.84,3.52c.15-1.63.59-3.22.77-4.84.78-7.21.47-16.05-.19-23.3-.45-4.91-1.26-9.8-2.2-14.63l.83,3.24ZM28.3,2.53c.95,2.82,1.77,5.85,2.48,8.75,1.73,7.05,2.99,14.15,3.12,21.43.05,2.54-.06,5.11-.29,7.63-.16,0-.21.05-.18-.14.09-.75.06-1.47.19-2.21.09-5.63-.17-11.22-1.08-16.76-1.06-6.41-2.72-12.7-4.38-18.97.14-.02.13.17.16.27ZM16.87,10.8c.28.23.61.59.86.86,4.67,5.02,9.05,12.07,11.89,18.32.12.27.3.57.33.87-.13-.05-.26-.18-.33-.3-.75-1.23-1.43-2.87-2.15-4.18-1.86-3.38-3.79-6.73-6.08-9.84-1.51-2.06-3.14-4.04-4.87-5.91.18-.04.23.1.34.19ZM32.54,43.6l-.19-1.01c-.16-5.29-2.15-10.28-4.99-14.68-2.25-3.49-4.72-7.32-7.29-10.54-1.65-2.07-3.44-4.05-5.18-6.05l.05-.14c2.9,3.24,5.98,6.48,8.39,10.12,2.66,4.01,5.37,8.07,7.43,12.42l1.01,3.07-1.35-5.51c-2.36-8.47-7.27-14.98-12.06-22.08-.09-.13-.24-.24-.21-.41.95,1.03,1.84,2.18,2.67,3.33,5.91,8.12,11.09,18.79,11.72,28.95.05.84-.04,1.7,0,2.54ZM32.83,38.38c-.25-2.51-.93-5.36-1.58-7.82-2.31-8.77-7.08-16.34-11.17-24.31l.18.02c4.83,8.56,10.05,17.17,11.97,26.97l.6,3.76c.06-5.19-1.02-10.2-2.44-15.15-1.73-6.02-3.94-11.93-6.75-17.51l-.11-.42.43.67c2.35,4.66,4.35,9.52,5.92,14.51,2.23,7.04,3.88,14.29,3.04,21.75-.17.02-.09-.22-.09-.33-.03-.68.06-1.44,0-2.11ZM36.95,42.02c2.7-3,6.02-5.11,9.53-7.16,7.64-4.45,16.18-7.2,24.9-8.61l-10.33,2.66c-6.63,2.08-13,4.99-18.79,8.83-.21.14-2.96,2.08-2.81,2.23l5.27-3.41c3.55-1.71,7.46-3.16,11.25-4.29,4.89-1.46,9.98-2.34,15.08-2.66l.33.09c-1.77.07-3.56.31-5.31.59-3.6.57-7.31,1.44-10.78,2.55-6.02,1.92-11.13,3.84-16.28,7.6-.98.71-1.74,1.78-2.73,2.49-.07-.07.58-.81.67-.91ZM36.14,43.98c3.92-3.35,8.15-5.67,13.35-6.41,6.11-.86,12.33-.72,18.37.5l.94.26c-2.53-.36-5.07-.82-7.64-.94-5.44-.26-12.64-.02-17.68,2.15l-1.54.81c.78-.24,1.52-.57,2.3-.81,5.25-1.61,10.72-1.75,16.15-1.09l5.91,1.23c-1.63-.2-3.23-.62-4.86-.85-6.94-.97-14.41-.7-20.79,2.4-2.18,1.06-4.09,2.52-5.91,4.11l1.53-2.16c4.18-3.64,9.28-6.33,14.58-7.96,6.12-1.88,12.56-2.87,18.99-2.73.02.17-.22.09-.33.09-1.86.08-3.71.11-5.56.29-4.98.48-11.95,1.94-16.57,3.86-.19.08-.54.19-.65.36l1.44-.29-.96.29c-.03.16.23.1.33.09.93-.16,2.02-.62,3.01-.83,5.88-1.25,13.39-1.36,19.32-.39l1.61.36c-1.75-.13-3.48-.46-5.23-.57-6.2-.39-12.75.05-18.75,1.68-3.14.85-5.13,1.67-7.85,3.46-1.49.98-2.94,2.13-4.13,3.44.17.08.5-.24.62-.34Z"/>
  </g>
</svg>