<?xml version="1.0" encoding="UTF-8"?>
<svg id="Layer_2" data-name="Layer 2" xmlns="http://www.w3.org/2000/svg" viewBox="0 0 499.75 80.45">
  <defs>
    <style>
      .cls-1 {
        fill: #1c1a15;
      }
    </style>
  </defs>
  <g id="Layer_1-2" data-name="Layer 1">
    <path class="cls-1" d="M19.36,6.56c.55-1.26,1.62-2.14,3.22-2.65,1.6-.5,3.99-.76,7.19-.76.17,0,.25-.25.25-.76s-.09-.76-.25-.76c-1.94,0-4.14.06-6.62.19-2.48.13-5.19.19-8.13.19-2.77,0-5.4-.06-7.88-.19-2.48-.13-4.73-.19-6.75-.19-.25,0-.38.25-.38.76s.13.76.38.76c3.19,0,5.61.23,7.25.69,1.64.46,2.73,1.3,3.28,2.52.55,1.22.82,3.05.82,5.49v58.39c0,2.44-.27,4.29-.82,5.55-.55,1.26-1.64,2.1-3.28,2.52-1.64.42-4.06.63-7.25.63-.25,0-.38.25-.38.76s.13.76.38.76c2.02,0,4.27-.04,6.75-.13,2.48-.08,5.11-.13,7.88-.13,2.94,0,5.63.04,8.07.13,2.44.08,4.67.13,6.68.13.17,0,.25-.25.25-.76s-.09-.76-.25-.76c-3.2,0-5.61-.21-7.25-.63-1.64-.42-2.71-1.26-3.22-2.52-.5-1.26-.76-3.11-.76-5.55V12.11c0-2.44.27-4.29.82-5.55Z"/>
    <path class="cls-1" d="M175.53,78.94c-3.2,0-5.59-.21-7.19-.63-1.6-.42-2.67-1.26-3.22-2.52-.55-1.26-.86-3.11-.95-5.55l-2.4-58.64c-.09-3.53.84-5.82,2.77-6.87,1.93-1.05,4.96-1.58,9.08-1.58.17,0,.25-.25.25-.76s-.08-.76-.25-.76c-1.51,0-2.94.04-4.29.13-1.35.08-3.11.13-5.3.13-1.09,0-2.06-.04-2.9-.13-.84-.08-1.47-.13-1.89-.13-.67,0-1.37.3-2.08.88-.72.59-1.28,1.35-1.7,2.27l-28.24,64.75-28.38-61.34c-1.35-2.86-2.35-4.67-3.03-5.42-.67-.76-1.6-1.13-2.77-1.13-.5,0-1.26.04-2.27.13-1.01.08-2.1.13-3.28.13-.93,0-2.1-.04-3.53-.13-1.43-.08-2.77-.13-4.03-.13-.17,0-.25.25-.25.76s.08.76.25.76c4.2,0,7.57,1.51,10.15,4.47l-1.2,59.71c-.09,4.29-.86,7.29-2.33,9.02-1.47,1.72-3.97,2.58-7.5,2.58-.17,0-.25.25-.25.76s.08.76.25.76c1.68,0,3.45-.04,5.3-.13,1.85-.08,3.78-.13,5.8-.13,2.35,0,4.52.04,6.5.13,1.97.08,3.89.13,5.74.13.17,0,.25-.25.25-.76s-.09-.76-.25-.76c-4.2,0-7.04-.86-8.51-2.58-1.47-1.72-2.16-4.73-2.08-9.02l1.01-55.48c.04.09.09.16.13.25l30.77,67.47c.17.34.55.5,1.14.5s.92-.17,1.01-.5l29.51-68.03,2.14,58.7c.17,3.62-.36,5.97-1.58,7.06-1.22,1.09-3.93,1.64-8.13,1.64-.17,0-.25.25-.25.76s.08.76.25.76c1.76,0,3.74-.04,5.93-.13,2.18-.08,4.58-.13,7.19-.13,2.77,0,5.4.04,7.88.13,2.48.08,4.73.13,6.75.13.25,0,.38-.25.38-.76s-.13-.76-.38-.76Z"/>
    <path class="cls-1" d="M427.36,78.94c-3.62,0-7.36-1.34-11.22-4.04-3.87-2.69-8.32-7.12-13.37-13.3-4.84-5.93-11.28-14.63-18.18-24.68,1.88-1.01,3.62-2.19,5.19-3.57,2.44-2.14,4.35-4.62,5.74-7.44,1.39-2.82,2.08-5.78,2.08-8.89,0-4.87-1.75-8.72-5.23-11.54-3.49-2.82-8.6-4.22-15.32-4.22-1.85,0-4.22.13-7.13.38s-5.44.38-7.63.38c-2.69,0-5.27-.06-7.75-.19-2.48-.13-4.69-.19-6.62-.19-.25,0-.38.25-.38.76s.12.76.38.76c3.19,0,5.59.23,7.19.69,1.59.46,2.67,1.3,3.22,2.52.55,1.22.82,3.05.82,5.49v58.39c0,2.44-.29,4.29-.88,5.55-.59,1.26-1.7,2.1-3.34,2.52-1.64.42-4.06.63-7.25.63-.17,0-.25.25-.25.76s.08.76.25.76c2.02,0,4.29-.04,6.81-.13,2.52-.08,5.13-.13,7.82-.13,2.94,0,5.61.04,8.01.13,2.4.08,4.6.13,6.62.13.25,0,.38-.25.38-.76s-.13-.76-.38-.76c-3.2,0-5.61-.21-7.25-.63-1.64-.42-2.71-1.26-3.22-2.52-.5-1.26-.76-3.11-.76-5.55V12.11c0-3.03.27-5.17.82-6.43s1.45-2.04,2.71-2.33c1.26-.29,2.9-.44,4.92-.44,3.11,0,5.88.59,8.32,1.76,2.44,1.18,4.39,3.11,5.86,5.8,1.47,2.69,2.21,6.3,2.21,10.84,0,5.72-1.35,9.86-4.04,12.42-.78.75-1.71,1.38-2.79,1.91-.06.03-.12.05-.18.08-.44.19-1.69.69-3.13,1.09-.9.22-1.84.41-2.87.53,0,0,11.65,17.24,16.28,23.51,4.62,6.26,8.58,11.1,11.85,14.5,3.28,3.4,5.63,5.11,7.06,5.11h14.63c.25,0,.38-.25.38-.76s-.13-.76-.38-.76Z"/>
    <path class="cls-1" d="M499.49,78.94c-3.2,0-5.61-.21-7.25-.63-1.64-.42-2.71-1.26-3.22-2.52-.5-1.26-.76-3.11-.76-5.55V12.11c0-2.44.27-4.29.82-5.55.55-1.26,1.62-2.14,3.22-2.65,1.6-.5,3.99-.76,7.19-.76.17,0,.25-.25.25-.76s-.09-.76-.25-.76c-1.94,0-4.14.06-6.62.19-2.48.13-5.19.19-8.13.19-2.77,0-5.4-.06-7.88-.19-2.48-.13-4.73-.19-6.75-.19-.25,0-.38.25-.38.76s.13.76.38.76c3.19,0,5.61.23,7.25.69,1.64.46,2.73,1.3,3.28,2.52.55,1.22.82,3.05.82,5.49v58.39c0,2.44-.27,4.29-.82,5.55-.55,1.26-1.64,2.1-3.28,2.52-1.64.42-4.06.63-7.25.63-.25,0-.38.25-.38.76s.13.76.38.76c2.02,0,4.27-.04,6.75-.13,2.48-.08,5.11-.13,7.88-.13,2.94,0,5.63.04,8.07.13,2.44.08,4.67.13,6.68.13.17,0,.25-.25.25-.76s-.09-.76-.25-.76Z"/>
    <path class="cls-1" d="M241.09,48.62l-6.79,16.33c-2.1,5.13-2.27,8.74-.5,10.84,1.76,2.1,5.5,3.15,11.22,3.15.42,0,.63.25.63.76s-.21.76-.63.76c-2.52,0-4.83-.08-6.94-.25-2.1-.17-4.75-.25-7.94-.25-2.94,0-5.32.09-7.13.25-1.81.17-3.97.25-6.5.25-.33,0-.5-.25-.5-.76s.17-.76.5-.76c2.27,0,4.25-.42,5.93-1.26,1.68-.84,3.26-2.35,4.73-4.54,1.47-2.19,3.05-5.3,4.73-9.33L258.26.38c.17-.25.44-.38.82-.38s.61.13.69.38l29.26,62.8c1.93,4.2,3.66,7.46,5.17,9.77,1.51,2.31,3.03,3.89,4.54,4.73,1.51.84,3.19,1.26,5.04,1.26.33,0,.5.25.5.76s-.17.76-.5.76c-2.35,0-4.77-.08-7.25-.25-2.48-.17-4.85-.25-7.13-.25-2.61,0-4.85.09-6.74.25-1.89.17-3.97.25-6.24.25-.34,0-.5-.25-.5-.76s.17-.76.5-.76c4.71,0,7.67-.63,8.89-1.89,1.22-1.26,1.03-3.66-.57-7.19l-14.79-31.82-1.05-2.25-11.87-25.52s-8.83,20.73-9.69,24.02c-.97,3.74,3.7,4.89,6.66,4.89,0,4.78-8.22,1.31-12.92,9.43Z"/>
  </g>
</svg>