<?xml version="1.0" encoding="UTF-8"?>
<svg id="Layer_2" data-name="Layer 2" xmlns="http://www.w3.org/2000/svg" viewBox="0 0 246.09 312.65">
  <defs>
    <style>
      .cls-1 {
        fill: #8a9a7a;
      }
    </style>
  </defs>
  <g id="Layer_1-2" data-name="Layer 1">
    <g>
      <path class="cls-1" d="M239.49,117.78c-.26-.26-.46-.28-.34-.77,11.3-3.65,7.78-20.25-3.19-21.71,1.02-1.18,2.81-1.46,4.13-2.41,7.06-5.12,5.12-16.84-1.56-21.39-1.16-.32-7.12,3.72-8.62,4.51-10.23,5.39-21.01,9.61-31.5,14.46-20.65,9.55-41.14,19.98-58.99,34.2l-.47-.16,1.59-1.6c-1.04-.1-2.71,1.49-3.52,2.22-7.69,6.97-15.09,14.55-21.71,22.41-1.75,2.08-3.7,7.12-5.25,9.68-.24.4.07.81-.79.63,1.84-3.7,3.36-7.56,5.15-11.28.58-1.21,1.63-2.59,2.04-3.7.11-.3.42-1.04-.17-.97l-2.4,4.46c-.1-1.12.42-2.3.85-3.3,1.28-3.01,3.65-6.17,5.23-9.13,8.14-15.35,16.03-29.19,25.42-43.83,13.58-21.17,28.39-41.4,43.5-61.49.5.28-.11.72-.28.99-7.98,12.23-17.32,23.91-25.67,35.93-7.8,11.22-14.84,22.83-22.14,34.35-6.06,9.58-12.72,18.45-17.41,28.86-.24.53-.43,1.08-.4,1.67l4.97-9.23c10.04-13.42,19.41-27.24,29.83-40.38,13.31-16.8,27.73-32.71,41.64-49l.16.47c-5.4,6.23-10.29,12.87-15.64,19.14-6.16,7.22-12.76,14.07-18.81,21.4-11.81,14.31-22.45,29.56-33.33,44.54-3.88,5.34-6.45,10.8-9.71,16.46-1.4,2.43-3.39,4.84-4.2,7.44,2.61-2.83,4.53-6.29,6.55-9.56.57-.93.41.42.63.31,20.04-29.94,49.02-51.75,76.27-74.69,3.45-2.91,6.82-5.96,10.23-8.92l.47.16c-5.74,5.68-12.21,10.56-18.34,15.81-19.73,16.87-40.96,34.13-57.61,54.09-3.04,3.64-7.88,9.46-10.21,13.41-.31.53-.68,1.11-.64,1.75,9.15-11.69,19.41-22.4,30.8-31.91,6.26-5.23,13.1-10.59,19.65-15.46,13.54-10.07,27.94-18.99,41.56-28.97,1.25-.92,4.11-3.61,5.17-4.09.14-.06.52-.08.47.16-15.75,13.5-33.94,23.81-50.4,36.41-13.82,10.59-28.72,22.75-39.91,36.05-1.93,2.29-3.43,5.09-5.75,7.17.6.14.76-.33,1.12-.63,1.96-1.65,3.14-3.91,4.78-5.75,8.83-9.85,19.89-17.92,30.7-25.47,8.72-6.08,17.24-12.69,26.38-17.99,9.18-5.32,19.18-10.5,28.61-15.43,3.5-1.83,7.14-3.37,10.51-5.45l.34.34c-12.17,7.14-25,13.18-37.23,20.22-6.02,3.46-10.01,6.77-15.45,10.72-13.82,10.03-26.83,17.26-39.51,29.42-1.6,1.53-3.06,3.62-4.82,5.07-.05.24.34.22.47.16,1.47-.67,5.84-5.43,7.5-6.86,2.96-2.55,6.52-5.63,9.61-7.95,3.01-2.26,6.55-4.2,9.71-6.25.94-.06.27.37-.06.58-2.56,1.7-5.65,3.54-8.07,5.34-3.86,2.88-7.37,6.29-11.19,9.23l.78.47c28.76-23.28,64.17-35.36,96.85-51.87,3.63-5.22-2.1-11.94-6.68-14.35-2.06-1.08-4.5-.84-4.5-3.51,0-2.21.67-2.56-.33-5.06-2.44-6.04-12.08-12.74-18.63-12.67-1.38.01-5.09,1.2-5.9.83-2.45-1.11-.49-3.93-.49-5.43,0-5.21-7.67-11.99-12.59-12.78-1.71-.27-2.86.07-4.48.03-1.04-.64-.76-1.87-1.12-2.73-1.06-2.55-3.47-5.64-6.41-6.03-1.28-.17-2.76.21-3.98-.17-.83-.26-2.91-2.64-4.24-3.42-11.76-6.93-20.28,4.76-23.84,14.57-5.79,15.96-6.1,34.49-14.27,49.55-5.31,22.97-9.1,46.36-15.55,69.02-.4,1.4-1.01,2.75-1.45,4.14-.6.07-.25-.64-.17-.97.29-1.26,1.77-3.95.5-4.77l-3.52,12.76c-.58.08-.27-.67-.18-.98,1.04-3.59,2.09-7.16,2.9-10.83,7.61-34.43,11.05-70.25,12.61-105.48.03-.63.36-1.25.33-1.9l.31-18.68c.56-.07.3.72.32,1.11.06,1.38-.07,2.78-.01,4.17.03.76.33,1.45.35,2.21.15,5.65-.39,11.33-.65,16.93-1.5,32.07-4.92,64.26-11.34,95.58-.32,1.58-.65,3.18-.79,4.79l.65-1.1c4.02-14.94,6.99-30.08,10.35-45.18,1.32-5.94,4.58-15.46,5.09-21.01.1-1.12-.49-2.82-.46-4.35.29-15.67,9.28-46.22-.97-59.36-3.99-5.11-11.15-7.21-17.22-4.79-1.27.51-3.84,2.53-4.68,2.62-.88.09-2.84-.79-4.09-.88-3.14-.21-6.39,1.02-8.63,3.2-1.15,1.13-2.28,3.74-3.98,4.02-.88.14-3.7-.98-5-1.11-6.54-.65-15,2.85-18.58,8.47-1.79,2.82-1.64,4.88-1.33,8.09-2.36-.63-4.51-1.58-6.93-.39-.7.35-1.16,1.29-1.86,1.36-.72.07-1.6-.66-2.37-.82-6.35-1.38-17.53,1.83-20.08,8.35-.42,1.06-.45,3.07-1.19,3.62-1.43.27-2.94-.13-4.43.01-7.14.68-14.37,9.19-10.53,16.27,29.34,15.72,59.56,32.26,78.8,60.35,2.3,3.36,4.74,7.05,6.26,10.82.59.07.25-.65.17-.97-.5-2.1-1.9-5.7-2.72-7.81-3.14-8.03-9.45-18.77-15.01-25.37.03.21.11.65-.16.64-2.02-1.71-3.47-3.99-5.27-5.9-9.34-9.95-19.32-19.47-29.67-28.41-6.02-5.19-12.59-9.85-18.2-15.47.69.05,1.33.73,1.88,1.15,18.48,13.93,36.49,30.3,51.41,48-.22-1.76-6.65-10.16-8.17-12.09-12-15.26-26.57-28.39-40.02-42.32l.96.32c15.94,15.2,32.34,30.65,45.12,48.71,8.53,12.05,16.81,24.63,21.03,38.97.64,5.71,2.25,11.32,2.74,17.05.03.39.34,1.7-.27,1.71-2.2-15.85-13.69-29.06-26.39-37.92-19.63-13.69-43.06-19.49-65.52-26.87l.97-.17c15.42,4.95,31.33,8.66,46.05,15.54,12.88,6.02,28.88,16.34,36.91,28.19,2.13,3.14,4.06,6.6,5.58,10.07.73-.01-1.8-6.11-2.02-6.6-.8-1.77-2.97-5.87-4.19-7.22-7.43-8.23-14.62-16.49-23.49-23.51-8.01-6.33-16.84-11.45-25.78-16.34-11.05-6.05-22.39-11.72-34.04-16.54l.96-.16c12.86,5.23,25.46,11.16,37.55,17.98,11,6.21,22.58,14.12,31.7,22.87,4.1,3.93,7.23,8.71,11.01,12.93.5-.28-.11-.72-.28-.99-17.89-27.45-50.28-43.17-77.32-59.92-1.2.96-1.91.18-3.14.24-2.69.13-5.89,1.11-7.25,3.64-.57,1.06-.45,2.42-.86,2.97-.42.57-2.68.86-3.65,1.46-4.92,3.03-4.23,8.85-.69,12.72,6.71,7.34,26.75,11.3,36.47,14.27,19.8,6.07,41.24,15.1,54.32,31.85,22.27,28.54,2.56,57.14-9.94,84.5-10.98,24.05-22.04,53.01-24.2,79.53-.5,6.13-1.04,22.02,4.31,26,2.72,2.03,6.53.67,8.09-2.11,1.93-3.45-1.75-5.45-3.11-8.3-8.13-17.07,2.8-54.39,9.3-71.69,7.48-19.92,18.49-42.71,29.23-61.09,19.08-32.65,52.81-41.3,88.89-36.76,11.18,1.4,31.77,7.67,41.86,3.48,4.63-1.92,6.79-5.63,6.18-10.67-.43-3.54-2.55-4.59-4.73-6.76ZM127.64,126.61l-2.42,4.12,1.45-3.81c3.15-3.32,5.32-7.54,8.75-10.55l-7.79,10.24ZM208.19,36.9l-.63,1.12c-5.26,5.16-10.55,10.3-15.79,15.49-11.55,11.42-23.26,22.95-34.16,35.09-5.77,6.42-11,13.32-17.07,19.47-.03-.59.49-1.12.82-1.57.81-1.07,1.83-2.33,2.69-3.37,14.87-17.96,30.99-34.68,47.71-50.9,5.38-5.22,10.72-10.45,16.42-15.33ZM118.59,126.18c1.45-7.07,4.46-14.61,6.46-21.62,6.78-23.68,13.22-47.47,19.72-71.24l5.97-19.72c-1.58,7.18-3.32,14.34-5.19,21.45-5.86,22.15-12.13,44.37-18.51,66.38-2.56,8.85-5.47,17.63-8.21,26.42-.61.01-.31-1.34-.24-1.68ZM124.27,116.53c5.61-15.77,9.17-32.51,14.85-48.02.04-.12.94-2.8,1.11-1.45-1.38,4-2.22,8.17-3.43,12.21-1.09,3.62-2.71,7.11-3.52,10.84-.07.32-.32,1.12.24,1.04,3.35-9.47,6.42-19.08,9.98-28.48,5.59-14.77,11.77-30.34,18.06-44.81.91-2.09,2.02-4.89,3.07-6.82.19-.36.35-.87.81-.94l-21.62,54.49-14.76,41.57,21.15-45.7,22.73-45.25.34.34c-16.3,32.84-32.4,65.8-46.78,99.54l.8-.95c16.77-32.18,33.48-64.49,53.82-94.58l.59-.05c-20.44,31.63-37.39,65.27-55.69,98.13l-9.72,21.71c1.58-7.93,5.28-15.23,7.98-22.81ZM42.09,57c13.95,10.06,28.38,21.49,39.94,34.26,5.18,5.72,14.64,17.29,17.57,24.39.22.54.65,1.45.25,1.99-7.3-13.83-17.37-25.43-28.72-36.07-8.55-8.02-18.4-16.36-28.02-23.04-5.21-3.61-10.8-6.65-15.87-10.46l14.85,8.93ZM13.52,70.42c27.13,8.28,54.9,19.22,75.76,38.97l2.75,3.79c-14.57-15.29-34.02-24.96-53.3-33.02-3.97-1.66-8.02-3.33-12.04-4.88-4.04-1.55-8.28-2.74-12.29-4.31-.34-.13-.95-.09-.88-.55ZM107.56,14.82c5.54,27.15,7.22,54.91,7.77,82.54l-.65,17.4c.21.25.43.27.54-.3.24-1.2.55-2.85.7-4.04,3.17-26.04,3.61-53.23,3.24-79.44l-1.92-22.8.91,4.03c4.75,40.7,1.48,82.21-5.14,122.42l-2.79,11.73c.51-5.41,1.96-10.72,2.55-16.12,2.6-24.01,1.56-53.41-.64-77.55-1.48-16.33-4.19-32.61-7.34-48.67l2.77,10.79ZM94.16,8.43c3.16,9.38,5.88,19.48,8.24,29.1,5.75,23.46,9.94,47.1,10.38,71.32.15,8.46-.19,16.99-.97,25.38-.54,0-.69.18-.61-.45.31-2.49.21-4.9.63-7.36.3-18.72-.56-37.33-3.61-55.78-3.53-21.33-9.06-42.26-14.59-63.11.47-.08.42.55.54.89ZM56.12,35.94c.92.78,2.04,1.97,2.88,2.87,15.54,16.72,30.11,40.17,39.58,60.95.41.9,1,1.9,1.11,2.88-.42-.16-.86-.61-1.09-.98-2.5-4.08-4.76-9.56-7.15-13.91-6.2-11.25-12.6-22.41-20.22-32.76-5.04-6.84-10.45-13.44-16.22-19.68.6-.14.76.33,1.12.63ZM108.3,145.09l-.63-3.35c-.54-17.61-7.17-34.22-16.59-48.83-7.48-11.6-15.69-24.36-24.27-35.09-5.5-6.88-11.44-13.47-17.22-20.12l.16-.47c9.65,10.78,19.91,21.58,27.93,33.66,8.86,13.34,17.86,26.86,24.72,41.34l3.35,10.21-4.49-18.33c-7.86-28.18-24.2-49.83-40.12-73.49-.3-.44-.79-.79-.7-1.37,3.15,3.44,6.11,7.27,8.87,11.07,19.65,27.02,36.92,62.53,38.99,96.33.17,2.8-.12,5.65,0,8.45ZM109.24,127.72c-.83-8.34-3.08-17.83-5.24-26.03-7.69-29.19-23.57-54.37-37.18-80.9l.59.05c16.09,28.49,33.44,57.12,39.84,89.73l2.01,12.5c.2-17.29-3.4-33.95-8.14-50.42-5.75-20.02-13.1-39.7-22.46-58.28l-.36-1.39,1.44,2.22c7.82,15.51,14.46,31.69,19.7,48.27,7.41,23.43,12.91,47.56,10.12,72.37-.56.07-.3-.72-.32-1.11-.09-2.28.2-4.79-.02-7.01ZM122.97,139.82c8.99-9.98,20.04-17.02,31.71-23.82,25.41-14.81,53.85-23.95,82.87-28.66l-34.39,8.85c-22.07,6.92-43.26,16.62-62.54,29.37-.7.47-9.87,6.93-9.34,7.41l17.55-11.33c11.82-5.68,24.82-10.51,37.42-14.28,16.28-4.87,33.23-7.78,50.19-8.85l1.11.31c-5.87.24-11.84,1.04-17.66,1.96-11.98,1.9-24.33,4.8-35.87,8.49-20.04,6.4-37.03,12.77-54.16,25.3-3.25,2.37-5.78,5.92-9.1,8.29-.22-.24,1.92-2.7,2.22-3.04ZM120.26,146.36c13.04-11.16,27.12-18.88,44.41-21.33,20.32-2.87,41.03-2.4,61.13,1.65l3.13.85c-8.43-1.21-16.88-2.73-25.42-3.14-18.12-.85-42.06-.08-58.82,7.14l-5.12,2.7c2.6-.79,5.06-1.91,7.66-2.71,17.48-5.35,35.66-5.82,53.73-3.63l19.66,4.11c-5.43-.66-10.75-2.07-16.16-2.83-23.08-3.23-47.95-2.32-69.17,7.98-7.26,3.53-13.63,8.39-19.67,13.68l5.09-7.19c13.9-12.12,30.88-21.07,48.52-26.48,20.38-6.24,41.8-9.53,63.19-9.09.07.56-.72.3-1.11.32-6.19.25-12.35.37-18.51.96-16.58,1.59-39.78,6.45-55.14,12.84-.62.26-1.79.64-2.15,1.2l4.78-.95-3.19.96c-.09.54.77.34,1.09.29,3.11-.53,6.73-2.05,10.02-2.75,19.58-4.17,44.55-4.53,64.28-1.29l5.35,1.19c-5.81-.45-11.58-1.54-17.39-1.91-20.64-1.3-42.44.15-62.39,5.58-10.43,2.84-17.06,5.57-26.14,11.52-4.97,3.26-9.79,7.07-13.75,11.46.56.27,1.66-.78,2.06-1.13Z"/>
      <path d="M98.22,247.17c0,7.59.78,13.34,2.35,17.27,1.57,3.92,4.91,6.54,10,7.85,5.1,1.31,12.62,1.96,22.56,1.96.52,0,.79.79.79,2.36s-.27,2.36-.79,2.36c-6.28,0-13.21-.13-20.8-.39-7.59-.26-15.96-.39-25.11-.39-8.63,0-16.81.14-24.52.39-7.72.26-14.71.39-20.99.39-.78,0-1.18-.79-1.18-2.36s.39-2.36,1.18-2.36c9.94,0,17.46-.65,22.56-1.96,5.1-1.3,8.5-3.93,10.2-7.85,1.7-3.93,2.55-9.68,2.55-17.27V65.49c0-7.59-.85-13.27-2.55-17.07-1.71-3.79-5.1-6.41-10.2-7.85-5.1-1.43-12.63-2.16-22.56-2.16-.78,0-1.18-.79-1.18-2.36s.39-2.36,1.18-2.36c6.28,0,13.27.2,20.99.59,7.71.39,15.89.59,24.52.59,9.16,0,17.59-.2,25.31-.59,7.71-.39,14.58-.59,20.6-.59.52,0,.79.79.79,2.36s-.27,2.36-.79,2.36c-9.94,0-17.4.79-22.37,2.36-4.97,1.57-8.31,4.32-10,8.24-1.71,3.93-2.55,9.68-2.55,17.27v180.89Z"/>
      <path class="cls-1" d="M98.22,174.81c-4.12,10.58-9.84,21.04-14.54,31.34-2.24,4.9-4.48,10.02-6.65,15.27v11.01c.36-.99.7-1.95,1.04-2.84,5.37-14.29,12.56-30.04,20.15-44.6v-10.17Z"/>
    </g>
  </g>
</svg>